<?xml version="1.0" encoding="UTF-8"?>
<svg xmlns="http://www.w3.org/2000/svg" width="18" height="18" viewBox="0 0 18 18">
  <path fill="#000" fill-rule="evenodd" d="M5.9 1.7h2.7c.3 0 .5.2.5.5v3.7h.4V2.2c0-.3.2-.5.5-.5h2.1a3 3 0 0 1 3 3v8.6a3 3 0 0 1-3 3H10a.5.5 0 0 1-.5-.5v-3.7h-.4v3.7a.5.5 0 0 1-.5.5H5.9a3 3 0 0 1-3-3V4.7a3 3 0 0 1 3-3Zm0 1.8c-.7 0-1.2.5-1.2 1.2v8.6c0 .7.5 1.2 1.2 1.2h1.4v-2.4h-.7a1.5 1.5 0 0 1-1.5-1.5V7.4a1.5 1.5 0 0 1 1.5-1.5h.7V3.5H5.9Zm5.4 0v2.4h.7a1.5 1.5 0 0 1 1.5 1.5v3.2a1.5 1.5 0 0 1-1.5 1.5h-.7v2.4h.8c.7 0 1.2-.5 1.2-1.2V4.7c0-.7-.5-1.2-1.2-1.2h-.8Z"/>
</svg>
